<?xml version="1.0" standalone="no"?>
<!DOCTYPE svg PUBLIC "-//W3C//DTD SVG 20010904//EN"
 "http://www.w3.org/TR/2001/REC-SVG-20010904/DTD/svg10.dtd">
<svg version="1.0" xmlns="http://www.w3.org/2000/svg"
 width="282.000000pt" height="179.000000pt" viewBox="0 0 282.000000 179.000000"
 preserveAspectRatio="xMidYMid meet">

<g transform="translate(0.000000,179.000000) scale(0.100000,-0.100000)"
fill="#000000" stroke="none">
<path d="M1473 1678 c-37 -18 -27 -92 12 -102 53 -13 103 44 73 82 -27 35 -46
39 -85 20z"/>
<path d="M1280 1623 c0 -5 29 -23 65 -42 109 -56 147 -118 109 -176 l-16 -25
-42 24 c-50 29 -203 68 -248 64 -29 -3 -21 -7 59 -37 101 -36 191 -88 177
-100 -5 -4 -39 -29 -77 -56 -143 -100 -165 -197 -65 -291 18 -18 49 -40 68
-49 34 -17 34 -16 -17 38 -40 43 -53 63 -53 87 0 53 25 93 96 159 88 80 97 85
118 62 15 -17 14 -22 -11 -77 -34 -74 -38 -194 -8 -259 l19 -40 6 100 c6 93
26 165 51 180 21 14 69 -128 69 -207 0 -61 16 -70 31 -16 16 61 6 184 -20 238
-12 24 -21 49 -21 56 0 16 52 55 136 101 75 41 69 54 -15 29 -50 -15 -51 -15
-41 5 16 29 4 56 -30 68 -66 22 -98 -65 -33 -90 l27 -10 -43 -25 c-41 -23 -45
-23 -62 -8 -18 16 -18 18 1 44 24 34 35 80 26 113 -13 52 -80 97 -195 131 -63
19 -61 18 -61 9z"/>
<path d="M1322 1528 c-17 -17 -15 -54 4 -72 24 -24 61 -20 80 9 15 23 15 27 0
50 -18 27 -63 34 -84 13z"/>
<path d="M1720 1128 c41 -57 41 -105 -1 -153 -69 -78 -167 -110 -313 -103
-163 9 -286 87 -286 182 0 29 7 52 21 70 27 35 20 42 -15 15 -61 -48 -72 -134
-26 -199 101 -142 439 -177 609 -64 104 68 118 172 35 258 -47 49 -61 46 -24
-6z"/>
<path d="M87 793 c-12 -20 -16 -93 -22 -390 l-6 -302 23 -5 c13 -3 616 -7
1341 -9 l1317 -5 0 344 0 344 -22 4 c-13 3 -491 7 -1063 10 -572 4 -1157 9
-1301 13 -169 4 -263 3 -267 -4z m2620 -46 c2 -3 7 -533 5 -596 l-2 -44 -817
6 c-450 4 -1030 7 -1288 7 -259 1 -480 3 -492 6 -15 4 -20 12 -18 26 3 11 5
100 6 197 0 97 3 230 6 295 l6 119 1296 -7 c712 -4 1296 -8 1298 -9z"/>
<path d="M298 643 c-9 -2 -20 -14 -24 -26 -5 -16 1 -27 26 -49 28 -23 31 -28
17 -34 -9 -3 -24 -4 -32 0 -9 3 -15 0 -15 -9 0 -19 43 -29 67 -16 11 5 29 7
41 4 13 -3 22 -1 22 6 0 15 35 14 60 -1 31 -20 34 -2 10 62 -29 78 -49 79 -80
8 -19 -47 -23 -51 -30 -31 -5 12 -18 24 -29 28 -27 8 -27 35 0 35 12 0 19 5
17 13 -5 13 -24 17 -50 10z m142 -74 c0 -5 -4 -9 -10 -9 -5 0 -10 7 -10 16 0
8 5 12 10 9 6 -3 10 -10 10 -16z"/>
<path d="M500 633 c1 -4 7 -33 14 -63 11 -48 16 -55 37 -55 17 0 25 6 27 23 5
31 15 28 29 -9 10 -26 15 -29 31 -20 10 5 23 29 29 53 5 24 12 50 14 58 8 31
-25 13 -36 -20 l-13 -35 -11 28 c-6 16 -11 33 -11 38 0 5 -8 9 -19 9 -14 0
-21 -10 -26 -36 -7 -39 -21 -36 -27 6 -3 22 -39 44 -38 23z"/>
<path d="M707 633 c-4 -3 -7 -30 -7 -59 0 -42 4 -55 19 -64 55 -29 101 4 101
71 0 32 3 36 20 32 15 -4 20 -15 22 -56 4 -62 28 -79 28 -19 0 51 8 72 27 72
8 0 13 6 10 13 -2 8 -27 12 -73 12 l-69 0 -1 -48 c-1 -27 -6 -53 -12 -59 -18
-18 -43 11 -42 46 4 63 -3 80 -23 59z"/>
<path d="M985 632 c-18 -12 -54 -121 -42 -129 5 -3 15 1 22 10 15 21 51 22 59
2 5 -15 37 -22 35 -7 0 4 -10 34 -22 66 -22 60 -33 72 -52 58z m19 -57 c3 -9
0 -15 -9 -15 -9 0 -12 6 -9 15 4 8 7 15 9 15 2 0 5 -7 9 -15z"/>
<path d="M1122 568 c2 -38 8 -63 16 -66 9 -3 12 14 12 62 0 53 -3 66 -15 66
-13 0 -15 -11 -13 -62z"/>
<path d="M1180 564 c0 -48 3 -65 13 -62 6 3 14 20 17 39 l5 34 22 -37 c35 -60
53 -51 53 27 0 50 -3 65 -14 65 -9 0 -16 -12 -18 -32 l-3 -33 -18 33 c-11 19
-25 32 -37 32 -18 0 -20 -7 -20 -66z"/>
<path d="M1300 620 c0 -6 9 -10 20 -10 18 0 20 -7 20 -55 0 -41 4 -55 14 -55
11 0 16 15 18 53 3 45 6 52 26 55 21 3 22 0 22 -52 l0 -56 40 0 c22 0 40 5 40
10 0 6 -11 10 -25 10 -31 0 -34 29 -5 37 11 3 20 9 20 14 0 5 -9 9 -20 9 -11
0 -20 7 -20 15 0 9 9 15 25 15 14 0 25 4 25 9 0 6 -45 10 -100 10 -58 0 -100
-4 -100 -9z"/>
<path d="M1529 628 c-8 -25 -6 -118 2 -124 12 -7 31 15 23 27 -2 4 0 10 6 14
5 3 15 -5 22 -19 6 -15 20 -26 30 -26 17 0 17 2 4 27 -10 21 -11 33 -3 51 9
20 8 27 -8 38 -16 12 -73 20 -76 12z m56 -38 c0 -7 -6 -15 -12 -17 -8 -3 -13
4 -13 17 0 13 5 20 13 18 6 -3 12 -11 12 -18z"/>
<path d="M1647 623 c-4 -3 -7 -33 -7 -65 0 -44 4 -58 14 -58 10 0 16 13 18 38
l3 37 23 -37 c30 -49 48 -48 56 2 11 72 -15 124 -28 58 l-7 -33 -20 33 c-20
31 -38 40 -52 25z"/>
<path d="M1795 578 c-10 -29 -20 -59 -23 -65 -2 -7 3 -13 12 -13 9 0 16 5 16
10 0 14 36 13 60 -2 29 -18 32 -7 14 48 -31 91 -52 97 -79 22z m45 -13 c0 -8
-4 -15 -10 -15 -5 0 -10 7 -10 15 0 8 5 15 10 15 6 0 10 -7 10 -15z"/>
<path d="M1895 621 c-4 -8 1 -14 14 -18 16 -4 21 -14 23 -56 4 -73 28 -76 28
-3 0 31 4 56 9 56 5 0 16 3 25 6 13 5 16 -3 16 -49 0 -50 12 -78 26 -64 6 6 7
117 2 122 -2 2 -33 7 -69 11 -47 5 -68 3 -74 -5z"/>
<path d="M2086 606 c-47 -46 -24 -116 38 -116 40 0 66 26 66 66 0 38 -17 61
-52 69 -21 5 -33 1 -52 -19z m70 -30 c7 -31 -12 -68 -34 -64 -24 5 -39 53 -22
72 19 24 49 20 56 -8z"/>
<path d="M2210 555 c0 -50 3 -65 14 -65 10 0 16 13 18 38 l3 37 23 -37 c20
-33 27 -37 59 -34 20 1 38 7 41 14 5 17 49 15 56 -3 7 -18 40 -20 34 -2 -3 6
-13 36 -24 65 -23 67 -49 68 -73 2 -9 -25 -21 -45 -26 -45 -6 0 -11 21 -13 48
-4 54 -18 61 -30 15 l-9 -33 -17 33 c-10 19 -24 32 -36 32 -18 0 -20 -7 -20
-65z m200 -7 c0 -5 -4 -8 -10 -8 -5 0 -10 10 -10 23 0 18 2 19 10 7 5 -8 10
-18 10 -22z"/>
<path d="M2474 558 l1 -63 38 -3 c21 -2 37 1 37 7 0 6 -9 11 -20 11 -18 0 -20
7 -20 55 0 47 -3 55 -18 55 -16 0 -19 -8 -18 -62z"/>
<path d="M630 293 c0 -33 5 -64 12 -71 21 -21 75 -15 92 10 18 26 21 103 5
114 -17 10 -29 -16 -29 -62 0 -27 -5 -44 -14 -47 -21 -8 -34 13 -38 62 -5 70
-28 65 -28 -6z"/>
<path d="M787 332 c-29 -31 -32 -77 -8 -101 17 -17 32 -21 82 -20 41 1 62 6
66 15 7 19 49 18 57 -1 3 -8 13 -15 22 -15 9 0 14 6 12 13 -3 6 -13 36 -22 65
-24 71 -46 70 -82 -5 -28 -58 -28 -58 -32 -25 -3 28 -7 32 -33 32 -31 0 -40
-17 -14 -26 18 -7 20 -34 2 -34 -21 0 -37 22 -37 52 0 31 26 50 58 41 25 -6
30 12 6 21 -29 11 -61 6 -77 -12z m170 -64 c-3 -7 -5 -2 -5 12 0 14 2 19 5 13
2 -7 2 -19 0 -25z"/>
<path d="M1039 338 c-1 -2 -2 -29 -4 -61 -4 -87 29 -94 34 -7 1 8 11 -2 23
-22 13 -22 30 -38 40 -38 15 0 18 9 18 65 0 51 -3 65 -15 65 -9 0 -15 -9 -15
-25 0 -14 -4 -25 -8 -25 -5 0 -14 11 -20 25 -7 15 -20 25 -32 25 -11 0 -20 -1
-21 -2z"/>
<path d="M1177 333 c-4 -3 -7 -33 -7 -65 l0 -58 40 0 c68 0 101 55 64 108 -11
16 -25 22 -53 22 -21 0 -41 -3 -44 -7z m73 -39 c13 -32 13 -30 -6 -48 -25 -26
-34 -19 -34 29 0 52 24 63 40 19z"/>
<path d="M1330 313 c-7 -16 -18 -45 -26 -65 -12 -35 -12 -38 5 -38 11 0 21 7
25 15 3 8 14 15 25 15 10 0 21 -7 25 -15 6 -16 36 -21 36 -6 0 5 -10 34 -21
65 -25 63 -48 73 -69 29z m40 -44 c0 -5 -4 -9 -10 -9 -5 0 -10 7 -10 16 0 8 5
12 10 9 6 -3 10 -10 10 -16z"/>
<path d="M1488 279 c-1 -33 -1 -63 1 -65 2 -2 31 -4 63 -4 l59 0 -3 62 c-4 83
-25 89 -34 10 -6 -55 -8 -59 -30 -54 -22 4 -24 9 -24 58 0 40 -4 54 -14 54
-10 0 -15 -17 -18 -61z"/>
<path d="M1637 334 c-4 -4 -7 -34 -7 -66 0 -44 4 -58 14 -58 9 0 16 13 19 33
l4 32 13 -32 c19 -44 44 -42 63 5 l15 37 1 -37 c1 -27 5 -38 16 -38 25 0 17
123 -7 128 -12 2 -23 -8 -35 -32 -9 -20 -19 -36 -22 -36 -3 0 -13 15 -21 33
-15 31 -39 45 -53 31z"/>
<path d="M1815 295 c-5 -38 -1 -82 9 -92 14 -14 26 15 26 64 0 46 3 54 16 49
9 -3 18 -6 20 -6 2 0 4 -22 4 -49 0 -45 13 -72 27 -57 3 3 5 28 4 56 0 44 2
50 19 50 31 0 24 20 -7 22 -117 6 -112 8 -118 -37z"/>
<path d="M1979 321 c-5 -112 -5 -116 25 -119 15 -2 35 0 44 4 14 5 13 8 -8 13
-32 9 -40 41 -11 41 12 0 21 5 21 10 0 6 -9 10 -20 10 -11 0 -20 7 -20 15 0 8
9 15 19 15 19 0 40 19 24 21 -56 8 -73 5 -74 -10z"/>
<path d="M2080 265 l0 -65 33 0 c48 0 77 24 77 65 0 44 -22 65 -71 65 l-39 0
0 -65z m64 39 c21 -8 21 -48 0 -68 -22 -23 -34 -11 -34 35 0 39 5 44 34 33z"/>
</g>
</svg>
